<?xml version="1.0" encoding="UTF-8"?>
<svg width="1300" height="1600" viewBox="0 0 1300 1600" xmlns="http://www.w3.org/2000/svg"
     font-family="'Segoe UI','Helvetica Neue',Arial,sans-serif">
<defs>
  <filter id="shadow">
    <feDropShadow dx="0" dy="3" stdDeviation="5" flood-color="#000" flood-opacity="0.4"/>
  </filter>
  <filter id="glow">
    <feDropShadow dx="0" dy="0" stdDeviation="3" flood-color="#3b82f6" flood-opacity="0.3"/>
  </filter>
  <linearGradient id="bg" x1="0" y1="0" x2="0" y2="1">
    <stop offset="0%" stop-color="#050d1f"/>
    <stop offset="100%" stop-color="#0c1222"/>
  </linearGradient>
  <marker id="arr" markerWidth="8" markerHeight="6" refX="7" refY="3" orient="auto">
    <polygon points="0 0, 8 3, 0 6" fill="#64748b"/>
  </marker>
</defs>

<!-- Background -->
<rect width="1300" height="1600" fill="url(#bg)"/>
<pattern id="grid" width="36" height="36" patternUnits="userSpaceOnUse">
  <path d="M 36 0 L 0 0 0 36" fill="none" stroke="#0f172a" stroke-width="0.5"/>
</pattern>
<rect width="1300" height="1600" fill="url(#grid)" opacity="0.7"/>


<text x="650" y="40" text-anchor="middle" font-size="20" font-weight="700" fill="#f1f5f9" letter-spacing="0.5">Use Case Diagram – CampusXchange System</text>
<text x="650" y="60" text-anchor="middle" font-size="11" fill="#475569" letter-spacing="2">UML USE CASE DIAGRAM  •  ACTORS &amp; INTERACTIONS  •  DIAGRAM 2 OF 4</text>
<line x1="60" y1="72" x2="1240" y2="72" stroke="#1e293b" stroke-width="1"/>


<rect x="270" y="85" width="850" height="1440" rx="12"
      fill="#0d1929" stroke="#334155" stroke-width="2" stroke-dasharray="10,5"/>
<text x="695" y="111" text-anchor="middle" font-size="15" font-weight="700"
      fill="#cbd5e1" letter-spacing="1">CampusXchange System</text>
<line x1="290" y1="119" x2="1100" y2="119" stroke="#334155" stroke-width="0.8"/>

<!-- Auth section -->
<text x="595" y="108" font-size="9.5" font-weight="600" fill="#10b981" letter-spacing="1.5">AUTHENTICATION</text>
<ellipse cx="530" cy="158" rx="115" ry="28" fill="#0d5e4e" stroke="#10b981" stroke-width="1.8"/>
<text x="530" y="163" text-anchor="middle" font-size="12" font-weight="600" fill="#ffffff">Register / Sign up</text>
<ellipse cx="530" cy="228" rx="115" ry="28" fill="#0d5e4e" stroke="#10b981" stroke-width="1.8"/>
<text x="530" y="233" text-anchor="middle" font-size="12" font-weight="600" fill="#ffffff">Login / Logout</text>
<!-- Buyer section -->
<text x="310" y="303" font-size="9.5" font-weight="600" fill="#60a5fa" letter-spacing="1.5">BUYER ACTIONS</text>
<ellipse cx="540" cy="320" rx="115" ry="28" fill="#1e3a8a" stroke="#3b82f6" stroke-width="1.8"/>
<text x="540" y="325" text-anchor="middle" font-size="12" font-weight="600" fill="#ffffff">Browse &amp; search listings</text>
<ellipse cx="540" cy="400" rx="115" ry="28" fill="#1e3a8a" stroke="#3b82f6" stroke-width="1.8"/>
<text x="540" y="405" text-anchor="middle" font-size="12" font-weight="600" fill="#ffffff">View listing details</text>
<ellipse cx="540" cy="478" rx="115" ry="28" fill="#1e3a8a" stroke="#3b82f6" stroke-width="1.8"/>
<text x="540" y="483" text-anchor="middle" font-size="12" font-weight="600" fill="#ffffff">Save to wishlist</text>
<ellipse cx="540" cy="558" rx="115" ry="28" fill="#1e3a8a" stroke="#3b82f6" stroke-width="1.8"/>
<text x="540" y="563" text-anchor="middle" font-size="12" font-weight="600" fill="#ffffff">Purchase item (Razorpay)</text>
<ellipse cx="540" cy="638" rx="115" ry="28" fill="#1e3a8a" stroke="#3b82f6" stroke-width="1.8"/>
<text x="540" y="643" text-anchor="middle" font-size="12" font-weight="600" fill="#ffffff">Chat with seller</text>
<ellipse cx="540" cy="718" rx="115" ry="28" fill="#1e3a8a" stroke="#3b82f6" stroke-width="1.8"/>
<text x="540" y="723" text-anchor="middle" font-size="12" font-weight="600" fill="#ffffff">View bought orders</text>
<!-- Seller section -->
<text x="310" y="882" font-size="9.5" font-weight="600" fill="#c084fc" letter-spacing="1.5">SELLER ACTIONS</text>
<ellipse cx="530" cy="900" rx="115" ry="28" fill="#3b0764" stroke="#a855f7" stroke-width="1.8"/>
<text x="530" y="905" text-anchor="middle" font-size="12" font-weight="600" fill="#ffffff">Create / edit listing</text>
<ellipse cx="530" cy="980" rx="115" ry="28" fill="#3b0764" stroke="#a855f7" stroke-width="1.8"/>
<text x="530" y="985" text-anchor="middle" font-size="12" font-weight="600" fill="#ffffff">Delete listing</text>
<ellipse cx="530" cy="1060" rx="115" ry="28" fill="#3b0764" stroke="#a855f7" stroke-width="1.8"/>
<text x="530" y="1065" text-anchor="middle" font-size="12" font-weight="600" fill="#ffffff">Onboard Razorpay account</text>
<ellipse cx="530" cy="1140" rx="115" ry="28" fill="#3b0764" stroke="#a855f7" stroke-width="1.8"/>
<text x="530" y="1145" text-anchor="middle" font-size="12" font-weight="600" fill="#ffffff">View sold orders</text>
<!-- System section -->
<rect x="750" y="470" width="260" height="310" rx="8"
      fill="#1a0800" stroke="#ea580c" stroke-width="1.3" stroke-dasharray="6,3"/>
<text x="880" y="492" text-anchor="middle" font-size="9.5" font-weight="600" fill="#fb923c" letter-spacing="1.5">SYSTEM / PAYMENT</text>

<ellipse cx="880" cy="520" rx="100" ry="28" fill="#7c2d12" stroke="#f97316" stroke-width="1.8"/>
<text x="880" y="525" text-anchor="middle" font-size="12" font-weight="600" fill="#ffffff">Verify payment</text>
<ellipse cx="880" cy="620" rx="100" ry="28" fill="#7c2d12" stroke="#f97316" stroke-width="1.8"/>
<text x="880" y="625" text-anchor="middle" font-size="12" font-weight="600" fill="#ffffff">Send notification</text>
<ellipse cx="880" cy="720" rx="100" ry="28" fill="#7c2d12" stroke="#f97316" stroke-width="1.8"/>
<text x="880" y="725" text-anchor="middle" font-size="12" font-weight="600" fill="#ffffff">Transfer to seller</text>
<circle cx="115" cy="460" r="18" fill="none" stroke="#60a5fa" stroke-width="2.2"/>
<line x1="115" y1="480" x2="115" y2="518" stroke="#60a5fa" stroke-width="2.2"/>
<line x1="93" y1="494" x2="137" y2="494" stroke="#60a5fa" stroke-width="2.2"/>
<line x1="115" y1="518" x2="97" y2="548" stroke="#60a5fa" stroke-width="2.2"/>
<line x1="115" y1="518" x2="133" y2="548" stroke="#60a5fa" stroke-width="2.2"/>
<text x="115" y="568" text-anchor="middle" font-size="13" font-weight="700" fill="#60a5fa">Buyer</text>
<circle cx="115" cy="960" r="18" fill="none" stroke="#c084fc" stroke-width="2.2"/>
<line x1="115" y1="980" x2="115" y2="1018" stroke="#c084fc" stroke-width="2.2"/>
<line x1="93" y1="994" x2="137" y2="994" stroke="#c084fc" stroke-width="2.2"/>
<line x1="115" y1="1018" x2="97" y2="1048" stroke="#c084fc" stroke-width="2.2"/>
<line x1="115" y1="1018" x2="133" y2="1048" stroke="#c084fc" stroke-width="2.2"/>
<text x="115" y="1068" text-anchor="middle" font-size="13" font-weight="700" fill="#c084fc">Seller</text>
<text x="115" y="1084" text-anchor="middle" font-size="10.5" fill="#94a3b8">(also a user)</text>
<circle cx="1175" cy="610" r="18" fill="none" stroke="#fb923c" stroke-width="2.2"/>
<line x1="1175" y1="630" x2="1175" y2="668" stroke="#fb923c" stroke-width="2.2"/>
<line x1="1153" y1="644" x2="1197" y2="644" stroke="#fb923c" stroke-width="2.2"/>
<line x1="1175" y1="668" x2="1157" y2="698" stroke="#fb923c" stroke-width="2.2"/>
<line x1="1175" y1="668" x2="1193" y2="698" stroke="#fb923c" stroke-width="2.2"/>
<text x="1175" y="718" text-anchor="middle" font-size="13" font-weight="700" fill="#fb923c">System</text>
<text x="1175" y="734" text-anchor="middle" font-size="10.5" fill="#94a3b8">(automated)</text>
<line x1="137" y1="460" x2="415" y2="158" stroke="#60a5fa" stroke-width="1.4"/>
<line x1="137" y1="460" x2="415" y2="228" stroke="#60a5fa" stroke-width="1.4"/>
<line x1="137" y1="460" x2="425" y2="320" stroke="#60a5fa" stroke-width="1.4"/>
<line x1="137" y1="460" x2="425" y2="400" stroke="#60a5fa" stroke-width="1.4"/>
<line x1="137" y1="460" x2="425" y2="478" stroke="#60a5fa" stroke-width="1.4"/>
<line x1="137" y1="460" x2="425" y2="558" stroke="#60a5fa" stroke-width="1.4"/>
<line x1="137" y1="460" x2="425" y2="638" stroke="#60a5fa" stroke-width="1.4"/>
<line x1="137" y1="460" x2="425" y2="718" stroke="#60a5fa" stroke-width="1.4"/>
<line x1="137" y1="960" x2="415" y2="158" stroke="#c084fc" stroke-width="1.4"/>
<line x1="137" y1="960" x2="415" y2="228" stroke="#c084fc" stroke-width="1.4"/>
<line x1="137" y1="960" x2="415" y2="900" stroke="#c084fc" stroke-width="1.4"/>
<line x1="137" y1="960" x2="415" y2="980" stroke="#c084fc" stroke-width="1.4"/>
<line x1="137" y1="960" x2="415" y2="1060" stroke="#c084fc" stroke-width="1.4"/>
<line x1="137" y1="960" x2="415" y2="1140" stroke="#c084fc" stroke-width="1.4"/>
<line x1="1153" y1="610" x2="980" y2="520" stroke="#fb923c" stroke-width="1.4"/>
<line x1="1153" y1="610" x2="980" y2="620" stroke="#fb923c" stroke-width="1.4"/>
<line x1="1153" y1="610" x2="980" y2="720" stroke="#fb923c" stroke-width="1.4"/>
<line x1="655" y1="558" x2="770.4" y2="522.9" stroke="#94a3b8" stroke-width="1.4" stroke-dasharray="6,3"/>
<polygon points="770.4,522.9 759.4,521.0 762.3,530.6" fill="#94a3b8" stroke="#94a3b8" stroke-width="0.5"/>
<text x="722" y="556" text-anchor="middle" font-size="9.5" fill="#94a3b8" font-style="italic">«include»</text>
<line x1="880" y1="548" x2="880.0" y2="682.0" stroke="#94a3b8" stroke-width="1.4" stroke-dasharray="6,3"/>
<polygon points="880.0,682.0 885.0,672.0 875.0,672.0" fill="#94a3b8" stroke="#94a3b8" stroke-width="0.5"/>
<text x="862" y="620" text-anchor="middle" font-size="9.5" fill="#94a3b8" font-style="italic">«include»</text>
<line x1="860" y1="548" x2="860.0" y2="582.0" stroke="#94a3b8" stroke-width="1.4" stroke-dasharray="6,3"/>
<polygon points="860.0,582.0 865.0,572.0 855.0,572.0" fill="#94a3b8" stroke="#94a3b8" stroke-width="0.5"/>
<text x="842" y="570" text-anchor="middle" font-size="9.5" fill="#94a3b8" font-style="italic">«include»</text>
<line x1="290" y1="790" x2="1100" y2="790" stroke="#1e293b" stroke-width="1" stroke-dasharray="4,4" opacity="0.7"/>
<line x1="290" y1="272" x2="1100" y2="272" stroke="#1e293b" stroke-width="1" stroke-dasharray="4,4" opacity="0.7"/>

<rect x="68" y="1480" width="560" height="98" rx="9" fill="#0f172a" stroke="#1e293b" stroke-width="1.3"/>
<text x="82" y="1500" font-size="11" font-weight="700" fill="#cbd5e1">Legend</text>
<line x1="82" y1="1508" x2="614" y2="1508" stroke="#1e293b" stroke-width="0.8"/>

<!-- Association -->
<line x1="82" y1="1530" x2="133" y2="1530" stroke="#94a3b8" stroke-width="1.6"/>
<text x="140" y="1535" font-size="10" fill="#cbd5e1">Actor Association</text>

<!-- Include -->
<line x1="268" y1="1530" x2="319" y2="1530" stroke="#94a3b8" stroke-width="1.6" stroke-dasharray="5,3"/>
<polygon points="319,1530 312,1526 312,1534" fill="#94a3b8"/>
<text x="326" y="1535" font-size="10" fill="#cbd5e1">«include» Relationship</text>

<!-- Color key -->
<ellipse cx="98" cy="1560" rx="22" ry="10" fill="#0d5e4e" stroke="#10b981" stroke-width="1.2"/>
<text x="124" y="1564" font-size="9.5" fill="#6ee7b7">Authentication</text>
<ellipse cx="233" cy="1560" rx="22" ry="10" fill="#1e3a8a" stroke="#3b82f6" stroke-width="1.2"/>
<text x="259" y="1564" font-size="9.5" fill="#93c5fd">Buyer Actions</text>
<ellipse cx="363" cy="1560" rx="22" ry="10" fill="#3b0764" stroke="#a855f7" stroke-width="1.2"/>
<text x="389" y="1564" font-size="9.5" fill="#d8b4fe">Seller Actions</text>
<ellipse cx="498" cy="1560" rx="22" ry="10" fill="#7c2d12" stroke="#f97316" stroke-width="1.2"/>
<text x="524" y="1564" font-size="9.5" fill="#fed7aa">System / Payment</text>


<line x1="60" y1="1560" x2="1240" y2="1560" stroke="#1e293b" stroke-width="1"/>
<text x="650" y="1580" text-anchor="middle" font-size="9.5" fill="#334155">CampusXchange System  •  Use Case Diagram  •  Diagram 2 of 4  •  Academic End-Term Evaluation</text>

</svg>