<svg xmlns="http://www.w3.org/2000/svg" viewBox="0 0 1300 1120" width="1300" height="1120" font-family="'Segoe UI', Arial, sans-serif">
  <defs>
    <filter id="shadow">
      <feDropShadow dx="0" dy="3" stdDeviation="5" flood-color="#00000025"/>
    </filter>
    <filter id="header-glow">
      <feDropShadow dx="0" dy="1" stdDeviation="2" flood-color="#1e3a8a40"/>
    </filter>
    <!-- Arrow markers for relationships -->
    <marker id="crow-many" markerWidth="14" markerHeight="14" refX="12" refY="7" orient="auto">
      <line x1="2" y1="2" x2="12" y2="7" stroke="#64748b" stroke-width="1.5"/>
      <line x1="2" y1="12" x2="12" y2="7" stroke="#64748b" stroke-width="1.5"/>
      <line x1="2" y1="5" x2="2" y2="9" stroke="#64748b" stroke-width="1.5"/>
    </marker>
    <marker id="crow-one" markerWidth="10" markerHeight="14" refX="2" refY="7" orient="auto">
      <line x1="2" y1="2" x2="2" y2="12" stroke="#64748b" stroke-width="1.5"/>
      <line x1="5" y1="2" x2="5" y2="12" stroke="#64748b" stroke-width="1.5"/>
    </marker>
    <marker id="dot" markerWidth="8" markerHeight="8" refX="4" refY="4" orient="auto">
      <circle cx="4" cy="4" r="3" fill="#64748b"/>
    </marker>
    <marker id="arrow-end" markerWidth="10" markerHeight="8" refX="9" refY="4" orient="auto">
      <polygon points="0 0, 10 4, 0 8" fill="#64748b"/>
    </marker>
    <marker id="arr-blue" markerWidth="10" markerHeight="8" refX="9" refY="4" orient="auto">
      <polygon points="0 0, 10 4, 0 8" fill="#3b82f6"/>
    </marker>
  </defs>

  <!-- Background -->
  <rect width="1300" height="1120" fill="#f8fafc"/>
  <!-- Subtle grid -->
  <pattern id="grid" width="40" height="40" patternUnits="userSpaceOnUse">
    <path d="M 40 0 L 0 0 0 40" fill="none" stroke="#e2e8f0" stroke-width="0.6"/>
  </pattern>
  <rect width="1300" height="1120" fill="url(#grid)"/>

  <!-- Title -->
  <text x="650" y="38" text-anchor="middle" font-size="21" font-weight="700" fill="#0f172a" letter-spacing="0.3">ER Diagram – CampusXchange Database Schema</text>
  <line x1="150" y1="48" x2="1150" y2="48" stroke="#94a3b8" stroke-width="1.2"/>
  <text x="650" y="66" text-anchor="middle" font-size="12" fill="#64748b">Diagram 4 of 4 — MongoDB Collections and Relationships</text>

  <!-- ================================================================
       ENTITY MACROS — defined as groups
       ================================================================ -->

  <!-- ====== USER (top center: x=430, y=80) ====== -->
  <g id="user" filter="url(#shadow)">
    <!-- header -->
    <rect x="430" y="80" width="220" height="30" rx="6" ry="6" fill="#1e3a8a"/>
    <rect x="430" y="96" width="220" height="14" rx="0" fill="#1e3a8a"/>
    <text x="540" y="100" text-anchor="middle" font-size="13" font-weight="700" fill="white" letter-spacing="1">USER</text>
    <!-- body -->
    <rect x="430" y="110" width="220" height="364" rx="0" ry="0" fill="white" stroke="#cbd5e1" stroke-width="1"/>
    <rect x="430" y="106" width="220" height="8" fill="white"/>
    <!-- rows: type | field | badge -->
    <!-- PK row -->
    <rect x="430" y="110" width="220" height="26" fill="#eff6ff"/>
    <text x="440" y="128" font-size="11" fill="#64748b">ObjectId</text>
    <text x="540" y="128" font-size="11" font-weight="600" fill="#0f172a">_id</text>
    <rect x="624" y="116" width="22" height="14" rx="3" fill="#fef3c7"/>
    <text x="635" y="127" text-anchor="middle" font-size="9" font-weight="700" fill="#b45309">PK</text>
    <!-- divider -->
    <line x1="430" y1="136" x2="650" y2="136" stroke="#e2e8f0" stroke-width="1"/>
    <text x="440" y="151" font-size="11" fill="#64748b">string</text><text x="540" y="151" font-size="11" fill="#0f172a">name</text>
    <line x1="430" y1="158" x2="650" y2="158" stroke="#e2e8f0" stroke-width="1"/>
    <text x="440" y="173" font-size="11" fill="#64748b">string</text><text x="540" y="173" font-size="11" fill="#0f172a">email</text>
    <line x1="430" y1="180" x2="650" y2="180" stroke="#e2e8f0" stroke-width="1"/>
    <text x="440" y="195" font-size="11" fill="#64748b">string</text><text x="540" y="195" font-size="11" fill="#0f172a">password</text>
    <line x1="430" y1="202" x2="650" y2="202" stroke="#e2e8f0" stroke-width="1"/>
    <text x="440" y="217" font-size="11" fill="#64748b">string</text><text x="540" y="217" font-size="11" fill="#0f172a">phone</text>
    <line x1="430" y1="224" x2="650" y2="224" stroke="#e2e8f0" stroke-width="1"/>
    <text x="440" y="239" font-size="11" fill="#64748b">string</text><text x="540" y="239" font-size="11" fill="#0f172a">hostel</text>
    <line x1="430" y1="246" x2="650" y2="246" stroke="#e2e8f0" stroke-width="1"/>
    <text x="440" y="261" font-size="11" fill="#64748b">string</text><text x="540" y="261" font-size="11" fill="#0f172a">room</text>
    <line x1="430" y1="268" x2="650" y2="268" stroke="#e2e8f0" stroke-width="1"/>
    <text x="440" y="283" font-size="11" fill="#64748b">string</text><text x="540" y="283" font-size="11" fill="#0f172a">bio</text>
    <line x1="430" y1="290" x2="650" y2="290" stroke="#e2e8f0" stroke-width="1"/>
    <text x="440" y="305" font-size="11" fill="#64748b">string</text><text x="540" y="305" font-size="11" fill="#0f172a">profilePhoto</text>
    <line x1="430" y1="312" x2="650" y2="312" stroke="#e2e8f0" stroke-width="1"/>
    <text x="440" y="327" font-size="11" fill="#64748b">string</text><text x="540" y="327" font-size="11" fill="#0f172a">razorpayAccountId</text>
    <line x1="430" y1="334" x2="650" y2="334" stroke="#e2e8f0" stroke-width="1"/>
    <text x="440" y="349" font-size="11" fill="#64748b">string</text><text x="540" y="349" font-size="11" fill="#0f172a">paymentStatus</text>
    <line x1="430" y1="356" x2="650" y2="356" stroke="#e2e8f0" stroke-width="1"/>
    <!-- FK row savedListings -->
    <rect x="430" y="356" width="220" height="26" fill="#fff7ed"/>
    <text x="440" y="374" font-size="11" fill="#64748b">ObjectId[]</text><text x="540" y="374" font-size="11" font-weight="600" fill="#0f172a">savedListings</text>
    <rect x="618" y="362" width="22" height="14" rx="3" fill="#fee2e2"/>
    <text x="629" y="373" text-anchor="middle" font-size="9" font-weight="700" fill="#dc2626">FK</text>
    <line x1="430" y1="382" x2="650" y2="382" stroke="#e2e8f0" stroke-width="1"/>
    <text x="440" y="397" font-size="11" fill="#64748b">date</text><text x="540" y="397" font-size="11" fill="#0f172a">createdAt</text>
    <!-- outer border -->
    <rect x="430" y="80" width="220" height="394" rx="6" ry="6" fill="none" stroke="#93c5fd" stroke-width="1.8"/>
  </g>

  <!-- ====== LISTING (right: x=840, y=80) ====== -->
  <g id="listing" filter="url(#shadow)">
    <rect x="840" y="80" width="220" height="30" rx="6" ry="6" fill="#1e3a8a"/>
    <rect x="840" y="96" width="220" height="14" fill="#1e3a8a"/>
    <text x="950" y="100" text-anchor="middle" font-size="13" font-weight="700" fill="white" letter-spacing="1">LISTING</text>
    <rect x="840" y="110" width="220" height="340" fill="white" stroke="#cbd5e1" stroke-width="1"/>
    <rect x="840" y="106" width="220" height="8" fill="white"/>
    <!-- PK -->
    <rect x="840" y="110" width="220" height="26" fill="#eff6ff"/>
    <text x="850" y="128" font-size="11" fill="#64748b">ObjectId</text>
    <text x="950" y="128" font-size="11" font-weight="600" fill="#0f172a">_id</text>
    <rect x="1034" y="116" width="22" height="14" rx="3" fill="#fef3c7"/><text x="1045" y="127" text-anchor="middle" font-size="9" font-weight="700" fill="#b45309">PK</text>
    <line x1="840" y1="136" x2="1060" y2="136" stroke="#e2e8f0" stroke-width="1"/>
    <text x="850" y="151" font-size="11" fill="#64748b">string</text><text x="950" y="151" font-size="11" fill="#0f172a">title</text>
    <line x1="840" y1="158" x2="1060" y2="158" stroke="#e2e8f0" stroke-width="1"/>
    <text x="850" y="173" font-size="11" fill="#64748b">string</text><text x="950" y="173" font-size="11" fill="#0f172a">description</text>
    <line x1="840" y1="180" x2="1060" y2="180" stroke="#e2e8f0" stroke-width="1"/>
    <text x="850" y="195" font-size="11" fill="#64748b">number</text><text x="950" y="195" font-size="11" fill="#0f172a">price</text>
    <line x1="840" y1="202" x2="1060" y2="202" stroke="#e2e8f0" stroke-width="1"/>
    <text x="850" y="217" font-size="11" fill="#64748b">string</text><text x="950" y="217" font-size="11" fill="#0f172a">category</text>
    <line x1="840" y1="224" x2="1060" y2="224" stroke="#e2e8f0" stroke-width="1"/>
    <text x="850" y="239" font-size="11" fill="#64748b">string</text><text x="950" y="239" font-size="11" fill="#0f172a">condition</text>
    <line x1="840" y1="246" x2="1060" y2="246" stroke="#e2e8f0" stroke-width="1"/>
    <text x="850" y="261" font-size="11" fill="#64748b">string[]</text><text x="950" y="261" font-size="11" fill="#0f172a">images</text>
    <line x1="840" y1="268" x2="1060" y2="268" stroke="#e2e8f0" stroke-width="1"/>
    <text x="850" y="283" font-size="11" fill="#64748b">string</text><text x="950" y="283" font-size="11" fill="#0f172a">location</text>
    <line x1="840" y1="290" x2="1060" y2="290" stroke="#e2e8f0" stroke-width="1"/>
    <!-- FK seller -->
    <rect x="840" y="290" width="220" height="26" fill="#fff7ed"/>
    <text x="850" y="308" font-size="11" fill="#64748b">ObjectId</text><text x="950" y="308" font-size="11" font-weight="600" fill="#0f172a">seller</text>
    <rect x="1034" y="296" width="22" height="14" rx="3" fill="#fee2e2"/><text x="1045" y="307" text-anchor="middle" font-size="9" font-weight="700" fill="#dc2626">FK</text>
    <line x1="840" y1="316" x2="1060" y2="316" stroke="#e2e8f0" stroke-width="1"/>
    <text x="850" y="331" font-size="11" fill="#64748b">string</text><text x="950" y="331" font-size="11" fill="#0f172a">status</text>
    <line x1="840" y1="338" x2="1060" y2="338" stroke="#e2e8f0" stroke-width="1"/>
    <text x="850" y="353" font-size="11" fill="#64748b">date</text><text x="950" y="353" font-size="11" fill="#0f172a">createdAt</text>
    <rect x="840" y="80" width="220" height="370" rx="6" ry="6" fill="none" stroke="#93c5fd" stroke-width="1.8"/>
  </g>

  <!-- ====== ORDER (bottom center: x=430, y=680) ====== -->
  <g id="order" filter="url(#shadow)">
    <rect x="430" y="680" width="220" height="30" rx="6" ry="6" fill="#1e3a8a"/>
    <rect x="430" y="696" width="220" height="14" fill="#1e3a8a"/>
    <text x="540" y="700" text-anchor="middle" font-size="13" font-weight="700" fill="white" letter-spacing="1">ORDER</text>
    <rect x="430" y="710" width="220" height="364" fill="white" stroke="#cbd5e1" stroke-width="1"/>
    <rect x="430" y="706" width="220" height="8" fill="white"/>
    <!-- PK -->
    <rect x="430" y="710" width="220" height="26" fill="#eff6ff"/>
    <text x="440" y="728" font-size="11" fill="#64748b">ObjectId</text><text x="540" y="728" font-size="11" font-weight="600" fill="#0f172a">_id</text>
    <rect x="624" y="716" width="22" height="14" rx="3" fill="#fef3c7"/><text x="635" y="727" text-anchor="middle" font-size="9" font-weight="700" fill="#b45309">PK</text>
    <line x1="430" y1="736" x2="650" y2="736" stroke="#e2e8f0" stroke-width="1"/>
    <!-- FK buyerId -->
    <rect x="430" y="736" width="220" height="26" fill="#fff7ed"/>
    <text x="440" y="754" font-size="11" fill="#64748b">ObjectId</text><text x="540" y="754" font-size="11" font-weight="600" fill="#0f172a">buyerId</text>
    <rect x="624" y="742" width="22" height="14" rx="3" fill="#fee2e2"/><text x="635" y="753" text-anchor="middle" font-size="9" font-weight="700" fill="#dc2626">FK</text>
    <line x1="430" y1="762" x2="650" y2="762" stroke="#e2e8f0" stroke-width="1"/>
    <!-- FK sellerId -->
    <rect x="430" y="762" width="220" height="26" fill="#fff7ed"/>
    <text x="440" y="780" font-size="11" fill="#64748b">ObjectId</text><text x="540" y="780" font-size="11" font-weight="600" fill="#0f172a">sellerId</text>
    <rect x="624" y="768" width="22" height="14" rx="3" fill="#fee2e2"/><text x="635" y="779" text-anchor="middle" font-size="9" font-weight="700" fill="#dc2626">FK</text>
    <line x1="430" y1="788" x2="650" y2="788" stroke="#e2e8f0" stroke-width="1"/>
    <!-- FK listingId -->
    <rect x="430" y="788" width="220" height="26" fill="#fff7ed"/>
    <text x="440" y="806" font-size="11" fill="#64748b">ObjectId</text><text x="540" y="806" font-size="11" font-weight="600" fill="#0f172a">listingId</text>
    <rect x="624" y="794" width="22" height="14" rx="3" fill="#fee2e2"/><text x="635" y="805" text-anchor="middle" font-size="9" font-weight="700" fill="#dc2626">FK</text>
    <line x1="430" y1="814" x2="650" y2="814" stroke="#e2e8f0" stroke-width="1"/>
    <text x="440" y="829" font-size="11" fill="#64748b">number</text><text x="540" y="829" font-size="11" fill="#0f172a">amount</text>
    <line x1="430" y1="836" x2="650" y2="836" stroke="#e2e8f0" stroke-width="1"/>
    <text x="440" y="851" font-size="11" fill="#64748b">string</text><text x="540" y="851" font-size="11" fill="#0f172a">razorpayOrderId</text>
    <line x1="430" y1="858" x2="650" y2="858" stroke="#e2e8f0" stroke-width="1"/>
    <text x="440" y="873" font-size="11" fill="#64748b">string</text><text x="540" y="873" font-size="11" fill="#0f172a">razorpayPaymentId</text>
    <line x1="430" y1="880" x2="650" y2="880" stroke="#e2e8f0" stroke-width="1"/>
    <text x="440" y="895" font-size="11" fill="#64748b">string</text><text x="540" y="895" font-size="11" fill="#0f172a">razorpaySignature</text>
    <line x1="430" y1="902" x2="650" y2="902" stroke="#e2e8f0" stroke-width="1"/>
    <text x="440" y="917" font-size="11" fill="#64748b">string</text><text x="540" y="917" font-size="11" fill="#0f172a">status</text>
    <line x1="430" y1="924" x2="650" y2="924" stroke="#e2e8f0" stroke-width="1"/>
    <text x="440" y="939" font-size="11" fill="#64748b">date</text><text x="540" y="939" font-size="11" fill="#0f172a">createdAt</text>
    <rect x="430" y="680" width="220" height="394" rx="6" ry="6" fill="none" stroke="#93c5fd" stroke-width="1.8"/>
  </g>

  <!-- ====== NOTIFICATION (left: x=80, y=400) ====== -->
  <g id="notification" filter="url(#shadow)">
    <rect x="80" y="400" width="210" height="30" rx="6" ry="6" fill="#1e3a8a"/>
    <rect x="80" y="416" width="210" height="14" fill="#1e3a8a"/>
    <text x="185" y="420" text-anchor="middle" font-size="13" font-weight="700" fill="white" letter-spacing="1">NOTIFICATION</text>
    <rect x="80" y="430" width="210" height="236" fill="white" stroke="#cbd5e1" stroke-width="1"/>
    <rect x="80" y="426" width="210" height="8" fill="white"/>
    <!-- PK -->
    <rect x="80" y="430" width="210" height="26" fill="#eff6ff"/>
    <text x="90" y="448" font-size="11" fill="#64748b">ObjectId</text><text x="185" y="448" font-size="11" font-weight="600" fill="#0f172a">_id</text>
    <rect x="272" y="436" width="22" height="14" rx="3" fill="#fef3c7"/><text x="283" y="447" text-anchor="middle" font-size="9" font-weight="700" fill="#b45309">PK</text>
    <line x1="80" y1="456" x2="290" y2="456" stroke="#e2e8f0" stroke-width="1"/>
    <!-- FK user -->
    <rect x="80" y="456" width="210" height="26" fill="#fff7ed"/>
    <text x="90" y="474" font-size="11" fill="#64748b">ObjectId</text><text x="185" y="474" font-size="11" font-weight="600" fill="#0f172a">user</text>
    <rect x="272" y="462" width="22" height="14" rx="3" fill="#fee2e2"/><text x="283" y="473" text-anchor="middle" font-size="9" font-weight="700" fill="#dc2626">FK</text>
    <line x1="80" y1="482" x2="290" y2="482" stroke="#e2e8f0" stroke-width="1"/>
    <text x="90" y="497" font-size="11" fill="#64748b">string</text><text x="185" y="497" font-size="11" fill="#0f172a">message</text>
    <line x1="80" y1="504" x2="290" y2="504" stroke="#e2e8f0" stroke-width="1"/>
    <text x="90" y="519" font-size="11" fill="#64748b">string</text><text x="185" y="519" font-size="11" fill="#0f172a">type</text>
    <line x1="80" y1="526" x2="290" y2="526" stroke="#e2e8f0" stroke-width="1"/>
    <text x="90" y="541" font-size="11" fill="#64748b">string</text><text x="185" y="541" font-size="11" fill="#0f172a">link</text>
    <line x1="80" y1="548" x2="290" y2="548" stroke="#e2e8f0" stroke-width="1"/>
    <text x="90" y="563" font-size="11" fill="#64748b">boolean</text><text x="185" y="563" font-size="11" fill="#0f172a">isRead</text>
    <line x1="80" y1="570" x2="290" y2="570" stroke="#e2e8f0" stroke-width="1"/>
    <text x="90" y="585" font-size="11" fill="#64748b">date</text><text x="185" y="585" font-size="11" fill="#0f172a">createdAt</text>
    <rect x="80" y="400" width="210" height="266" rx="6" ry="6" fill="none" stroke="#93c5fd" stroke-width="1.8"/>
  </g>

  <!-- ====== CONVERSATION (bottom right: x=820, y=680) ====== -->
  <g id="conversation" filter="url(#shadow)">
    <rect x="820" y="680" width="230" height="30" rx="6" ry="6" fill="#1e3a8a"/>
    <rect x="820" y="696" width="230" height="14" fill="#1e3a8a"/>
    <text x="935" y="700" text-anchor="middle" font-size="13" font-weight="700" fill="white" letter-spacing="1">CONVERSATION</text>
    <rect x="820" y="710" width="230" height="260" fill="white" stroke="#cbd5e1" stroke-width="1"/>
    <rect x="820" y="706" width="230" height="8" fill="white"/>
    <!-- PK -->
    <rect x="820" y="710" width="230" height="26" fill="#eff6ff"/>
    <text x="830" y="728" font-size="11" fill="#64748b">ObjectId</text><text x="935" y="728" font-size="11" font-weight="600" fill="#0f172a">_id</text>
    <rect x="1024" y="716" width="22" height="14" rx="3" fill="#fef3c7"/><text x="1035" y="727" text-anchor="middle" font-size="9" font-weight="700" fill="#b45309">PK</text>
    <line x1="820" y1="736" x2="1050" y2="736" stroke="#e2e8f0" stroke-width="1"/>
    <!-- FK buyerId -->
    <rect x="820" y="736" width="230" height="26" fill="#fff7ed"/>
    <text x="830" y="754" font-size="11" fill="#64748b">ObjectId</text><text x="935" y="754" font-size="11" font-weight="600" fill="#0f172a">buyerId</text>
    <rect x="1024" y="742" width="22" height="14" rx="3" fill="#fee2e2"/><text x="1035" y="753" text-anchor="middle" font-size="9" font-weight="700" fill="#dc2626">FK</text>
    <line x1="820" y1="762" x2="1050" y2="762" stroke="#e2e8f0" stroke-width="1"/>
    <!-- FK sellerId -->
    <rect x="820" y="762" width="230" height="26" fill="#fff7ed"/>
    <text x="830" y="780" font-size="11" fill="#64748b">ObjectId</text><text x="935" y="780" font-size="11" font-weight="600" fill="#0f172a">sellerId</text>
    <rect x="1024" y="768" width="22" height="14" rx="3" fill="#fee2e2"/><text x="1035" y="779" text-anchor="middle" font-size="9" font-weight="700" fill="#dc2626">FK</text>
    <line x1="820" y1="788" x2="1050" y2="788" stroke="#e2e8f0" stroke-width="1"/>
    <!-- FK listingId -->
    <rect x="820" y="788" width="230" height="26" fill="#fff7ed"/>
    <text x="830" y="806" font-size="11" fill="#64748b">ObjectId</text><text x="935" y="806" font-size="11" font-weight="600" fill="#0f172a">listingId</text>
    <rect x="1024" y="794" width="22" height="14" rx="3" fill="#fee2e2"/><text x="1035" y="805" text-anchor="middle" font-size="9" font-weight="700" fill="#dc2626">FK</text>
    <line x1="820" y1="814" x2="1050" y2="814" stroke="#e2e8f0" stroke-width="1"/>
    <text x="830" y="829" font-size="11" fill="#64748b">string</text><text x="935" y="829" font-size="11" fill="#0f172a">lastMessage</text>
    <line x1="820" y1="836" x2="1050" y2="836" stroke="#e2e8f0" stroke-width="1"/>
    <text x="830" y="851" font-size="11" fill="#64748b">date</text><text x="935" y="851" font-size="11" fill="#0f172a">lastMessageAt</text>
    <line x1="820" y1="858" x2="1050" y2="858" stroke="#e2e8f0" stroke-width="1"/>
    <text x="830" y="873" font-size="11" fill="#64748b">boolean</text><text x="935" y="873" font-size="11" fill="#0f172a">closed</text>
    <rect x="820" y="680" width="230" height="290" rx="6" ry="6" fill="none" stroke="#93c5fd" stroke-width="1.8"/>
  </g>

  <!-- ====== MESSAGE (far right bottom: x=820, y=1000) ====== -->
  <g id="message" filter="url(#shadow)">
    <rect x="820" y="1000" width="230" height="30" rx="6" ry="6" fill="#1e3a8a"/>
    <rect x="820" y="1016" width="230" height="14" fill="#1e3a8a"/>
    <text x="935" y="1020" text-anchor="middle" font-size="13" font-weight="700" fill="white" letter-spacing="1">MESSAGE</text>
    <rect x="820" y="1030" width="230" height="78" fill="white" stroke="#cbd5e1" stroke-width="1"/>
    <rect x="820" y="1026" width="230" height="8" fill="white"/>
    <!-- PK -->
    <rect x="820" y="1030" width="230" height="26" fill="#eff6ff"/>
    <text x="830" y="1048" font-size="11" fill="#64748b">ObjectId</text><text x="935" y="1048" font-size="11" font-weight="600" fill="#0f172a">_id</text>
    <rect x="1024" y="1036" width="22" height="14" rx="3" fill="#fef3c7"/><text x="1035" y="1047" text-anchor="middle" font-size="9" font-weight="700" fill="#b45309">PK</text>
    <line x1="820" y1="1056" x2="1050" y2="1056" stroke="#e2e8f0" stroke-width="1"/>
    <!-- FK conversationId -->
    <rect x="820" y="1056" width="230" height="26" fill="#fff7ed"/>
    <text x="830" y="1074" font-size="11" fill="#64748b">ObjectId</text><text x="935" y="1074" font-size="11" font-weight="600" fill="#0f172a">conversationId</text>
    <rect x="1024" y="1062" width="22" height="14" rx="3" fill="#fee2e2"/><text x="1035" y="1073" text-anchor="middle" font-size="9" font-weight="700" fill="#dc2626">FK</text>
    <line x1="820" y1="1082" x2="1050" y2="1082" stroke="#e2e8f0" stroke-width="1"/>
    <!-- FK senderId -->
    <rect x="820" y="1082" width="230" height="26" fill="#fff7ed"/>
    <text x="830" y="1100" font-size="11" fill="#64748b">ObjectId</text><text x="935" y="1100" font-size="11" font-weight="600" fill="#0f172a">senderId</text>
    <rect x="1024" y="1088" width="22" height="14" rx="3" fill="#fee2e2"/><text x="1035" y="1099" text-anchor="middle" font-size="9" font-weight="700" fill="#dc2626">FK</text>
    <!-- extra fields not in image but in spec -->
    <rect x="820" y="1000" width="230" height="108" rx="6" ry="6" fill="none" stroke="#93c5fd" stroke-width="1.8"/>
  </g>

  <!-- ================================================================
       RELATIONSHIP LINES
       ================================================================ -->

  <!-- 1) USER → LISTING via seller FK  (sells)  -->
  <!-- USER right edge center → LISTING left edge center -->
  <!-- 1 side at USER (x=650), N side at LISTING (x=840) -->
  <line x1="650" y1="260" x2="840" y2="260" stroke="#64748b" stroke-width="1.8"/>
  <!-- 1 marker at user side -->
  <line x1="650" y1="253" x2="650" y2="267" stroke="#64748b" stroke-width="2"/>
  <line x1="654" y1="253" x2="654" y2="267" stroke="#64748b" stroke-width="2"/>
  <!-- crow foot at listing side -->
  <line x1="840" y1="260" x2="828" y2="254" stroke="#64748b" stroke-width="2"/>
  <line x1="840" y1="260" x2="828" y2="266" stroke="#64748b" stroke-width="2"/>
  <line x1="828" y1="254" x2="828" y2="266" stroke="#64748b" stroke-width="2"/>
  <rect x="700" y="246" width="80" height="18" rx="3" fill="white" stroke="#e2e8f0" stroke-width="1"/>
  <text x="740" y="259" text-anchor="middle" font-size="11" fill="#475569" font-weight="600">1 sells N</text>

  <!-- 2) USER → NOTIFICATION via user FK -->
  <!-- USER left edge → NOTIFICATION right edge -->
  <line x1="430" y1="470" x2="290" y2="470" stroke="#64748b" stroke-width="1.8"/>
  <line x1="430" y1="463" x2="430" y2="477" stroke="#64748b" stroke-width="2"/>
  <line x1="426" y1="463" x2="426" y2="477" stroke="#64748b" stroke-width="2"/>
  <line x1="290" y1="470" x2="302" y2="464" stroke="#64748b" stroke-width="2"/>
  <line x1="290" y1="470" x2="302" y2="476" stroke="#64748b" stroke-width="2"/>
  <line x1="302" y1="464" x2="302" y2="476" stroke="#64748b" stroke-width="2"/>
  <rect x="316" y="456" width="100" height="18" rx="3" fill="white" stroke="#e2e8f0" stroke-width="1"/>
  <text x="366" y="469" text-anchor="middle" font-size="11" fill="#475569" font-weight="600">1 receives N</text>

  <!-- 3) USER → ORDER via buyerId -->
  <!-- USER bottom → ORDER top via a stepped line -->
  <polyline points="510,474 510,660 490,660 490,680" stroke="#64748b" stroke-width="1.8" fill="none"/>
  <line x1="503" y1="474" x2="517" y2="474" stroke="#64748b" stroke-width="2"/>
  <line x1="503" y1="470" x2="517" y2="470" stroke="#64748b" stroke-width="2"/>
  <line x1="490" y1="680" x2="483" y2="668" stroke="#64748b" stroke-width="2"/>
  <line x1="490" y1="680" x2="497" y2="668" stroke="#64748b" stroke-width="2"/>
  <line x1="483" y1="668" x2="497" y2="668" stroke="#64748b" stroke-width="2"/>
  <rect x="518" y="612" width="70" height="18" rx="3" fill="white" stroke="#e2e8f0" stroke-width="1"/>
  <text x="553" y="625" text-anchor="middle" font-size="11" fill="#475569" font-weight="600">1 buys N</text>

  <!-- 4) USER → ORDER via sellerId -->
  <polyline points="570,474 570,660 560,660 560,680" stroke="#64748b" stroke-width="1.8" fill="none" stroke-dasharray="5,3"/>
  <line x1="563" y1="474" x2="577" y2="474" stroke="#64748b" stroke-width="2"/>
  <line x1="563" y1="470" x2="577" y2="470" stroke="#64748b" stroke-width="2"/>
  <line x1="560" y1="680" x2="553" y2="668" stroke="#64748b" stroke-width="2"/>
  <line x1="560" y1="680" x2="567" y2="668" stroke="#64748b" stroke-width="2"/>
  <line x1="553" y1="668" x2="567" y2="668" stroke="#64748b" stroke-width="2"/>
  <rect x="578" y="612" width="70" height="18" rx="3" fill="white" stroke="#e2e8f0" stroke-width="1"/>
  <text x="613" y="625" text-anchor="middle" font-size="11" fill="#475569" font-weight="600">1 sells N</text>

  <!-- 5) LISTING → ORDER via listingId -->
  <!-- LISTING bottom → ORDER right edge via L-bend -->
  <polyline points="950,450 950,640 660,640 660,680" stroke="#64748b" stroke-width="1.8" fill="none"/>
  <line x1="943" y1="450" x2="957" y2="450" stroke="#64748b" stroke-width="2"/>
  <line x1="943" y1="446" x2="957" y2="446" stroke="#64748b" stroke-width="2"/>
  <line x1="660" y1="680" x2="653" y2="668" stroke="#64748b" stroke-width="2"/>
  <line x1="660" y1="680" x2="667" y2="668" stroke="#64748b" stroke-width="2"/>
  <line x1="653" y1="668" x2="667" y2="668" stroke="#64748b" stroke-width="2"/>
  <rect x="760" y="626" width="100" height="18" rx="3" fill="white" stroke="#e2e8f0" stroke-width="1"/>
  <text x="810" y="639" text-anchor="middle" font-size="11" fill="#475569" font-weight="600">1 ordered as N</text>

  <!-- 6) USER savedListings → LISTING (saves/wishlist) -->
  <!-- Arc on top -->
  <path d="M 650 360 Q 800 30 840 140" stroke="#64748b" stroke-width="1.6" fill="none" stroke-dasharray="6,3"/>
  <line x1="840" y1="140" x2="828" y2="134" stroke="#64748b" stroke-width="1.8"/>
  <line x1="840" y1="140" x2="828" y2="146" stroke="#64748b" stroke-width="1.8"/>
  <line x1="828" y1="134" x2="828" y2="146" stroke="#64748b" stroke-width="1.8"/>
  <rect x="770" y="55" width="100" height="18" rx="3" fill="white" stroke="#e2e8f0" stroke-width="1"/>
  <text x="820" y="68" text-anchor="middle" font-size="11" fill="#475569" font-weight="600">saves (wishlist)</text>

  <!-- 7) LISTING → CONVERSATION -->
  <polyline points="950,450 950,600 935,600 935,680" stroke="#64748b" stroke-width="1.8" fill="none"/>
  <line x1="943" y1="450" x2="957" y2="450" stroke="#64748b" stroke-width="2"/>
  <line x1="943" y1="446" x2="957" y2="446" stroke="#64748b" stroke-width="2"/>
  <line x1="935" y1="680" x2="928" y2="668" stroke="#64748b" stroke-width="2"/>
  <line x1="935" y1="680" x2="942" y2="668" stroke="#64748b" stroke-width="2"/>
  <line x1="928" y1="668" x2="942" y2="668" stroke="#64748b" stroke-width="2"/>
  <rect x="960" y="587" width="110" height="18" rx="3" fill="white" stroke="#e2e8f0" stroke-width="1"/>
  <text x="1015" y="600" text-anchor="middle" font-size="11" fill="#475569" font-weight="600">1 discussed in N</text>

  <!-- 8) CONVERSATION → MESSAGE (contains) -->
  <line x1="935" y1="970" x2="935" y2="1000" stroke="#64748b" stroke-width="1.8"/>
  <line x1="928" y1="970" x2="942" y2="970" stroke="#64748b" stroke-width="2"/>
  <line x1="928" y1="966" x2="942" y2="966" stroke="#64748b" stroke-width="2"/>
  <line x1="935" y1="1000" x2="928" y2="988" stroke="#64748b" stroke-width="2"/>
  <line x1="935" y1="1000" x2="942" y2="988" stroke="#64748b" stroke-width="2"/>
  <line x1="928" y1="988" x2="942" y2="988" stroke="#64748b" stroke-width="2"/>
  <rect x="948" y="978" width="72" height="18" rx="3" fill="white" stroke="#e2e8f0" stroke-width="1"/>
  <text x="984" y="991" text-anchor="middle" font-size="11" fill="#475569" font-weight="600">1 contains N</text>

  <!-- ================================================================
       LEGEND
       ================================================================ -->
  <rect x="60" y="710" width="295" height="110" rx="8" fill="white" stroke="#cbd5e1" stroke-width="1.5" filter="url(#shadow)"/>
  <text x="207" y="732" text-anchor="middle" font-size="12" font-weight="700" fill="#0f172a">Legend</text>
  <!-- PK -->
  <rect x="80" y="742" width="22" height="14" rx="3" fill="#fef3c7"/>
  <text x="91" y="753" text-anchor="middle" font-size="9" font-weight="700" fill="#b45309">PK</text>
  <text x="112" y="754" font-size="11" fill="#374151">Primary Key</text>
  <!-- FK -->
  <rect x="80" y="764" width="22" height="14" rx="3" fill="#fee2e2"/>
  <text x="91" y="775" text-anchor="middle" font-size="9" font-weight="700" fill="#dc2626">FK</text>
  <text x="112" y="775" font-size="11" fill="#374151">Foreign Key</text>
  <!-- 1:N -->
  <line x1="80" y1="793" x2="100" y2="793" stroke="#64748b" stroke-width="1.8"/>
  <line x1="100" y1="786" x2="100" y2="800" stroke="#64748b" stroke-width="2"/>
  <line x1="104" y1="786" x2="104" y2="800" stroke="#64748b" stroke-width="2"/>
  <text x="112" y="797" font-size="11" fill="#374151">One side (||)</text>
  <line x1="183" y1="793" x2="203" y2="793" stroke="#64748b" stroke-width="1.8"/>
  <line x1="183" y1="793" x2="191" y2="787" stroke="#64748b" stroke-width="1.8"/>
  <line x1="183" y1="793" x2="191" y2="799" stroke="#64748b" stroke-width="1.8"/>
  <line x1="191" y1="787" x2="191" y2="799" stroke="#64748b" stroke-width="1.8"/>
  <text x="210" y="797" font-size="11" fill="#374151">Many side (&gt;|)</text>
  <!-- dashed -->
  <line x1="80" y1="815" x2="110" y2="815" stroke="#64748b" stroke-width="1.6" stroke-dasharray="5,3"/>
  <text x="118" y="819" font-size="11" fill="#374151">Derived / Array ref</text>

  <!-- Footer -->
  <text x="650" y="1090" text-anchor="middle" font-size="11" fill="#94a3b8">Diagram 4 of 4 — ER Diagram — CampusXchange Database Schema (MongoDB)</text>
</svg>
